<svg xmlns="http://www.w3.org/2000/svg" xml:space="preserve" width="1500" height="1500" data-id="lg_Ikjsj4UdlZ3K4pCqlz" data-version="1" viewBox="0 0 1500 1500"><path stroke="transparent" d="M0 0h1500v1500H0z"/><g data-padding="20"><g transform="translate(-571.429 -562.259)scale(1.68919)"><rect width="349.185" height="182.857" x="388.715" y="377.395" fill="none" rx="0" ry="0" transform="translate(185.18 462.78)scale(1.06)"/><path fill="#fff" d="M652.886 939.572h5.43v-47.29h-5.43q-.92 0-1.52-.6t-.6-1.52.6-1.56q.6-.65 1.52-.65h15.82q.92 0 1.52.65.6.64.6 1.56t-.6 1.52-1.52.6h-5.43v47.29h5.43q.92 0 1.52.6t.6 1.52-.6 1.56q-.6.65-1.52.65h-15.82q-.92 0-1.52-.65-.6-.64-.6-1.56t.6-1.52 1.52-.6m30.08-8.37v6.35q6.17 2.94 15.65 2.94 9.47 0 14.26-2.99 4.78-2.99 4.78-8.46 0-5.48-4.51-8.15t-14.35-4.55q-9.85-1.89-14.77-5.02-4.92-3.12-4.92-9.84 0-14.45 21.44-14.45 11.41 0 18.86 4.14 1.38.83 1.38 1.94v7.54q0 .92-.74 1.52-.73.6-1.74.6-1.02 0-1.75-.6-.74-.6-.74-1.52v-6.35q-6.35-2.94-15.04-2.94-8.7 0-12.7 2.48-4 2.49-4 7.64 0 4.88 5.15 7.27 3.5 1.75 9.43 2.99 5.94 1.24 8.42 1.88 2.49.65 5.8 1.98 3.31 1.34 5.15 2.99 1.84 1.66 3.22 4.37 1.38 2.72 1.38 6.21 0 7.18-6.03 11.41-6.02 4.24-17.25 4.24-5.15 0-11.13-1.15t-9.02-3.09q-1.19-.73-1.19-1.84v-7.54q0-.92.73-1.52.74-.6 1.75-.6t1.75.6q.73.6.73 1.52m99.01 8.37h3.4q.92 0 1.52.64.6.65.6 1.57t-.6 1.52-1.52.6h-3.4q-4.05 0-5.57-1.75t-1.52-3.96v-20.24h-33.77v24.75q0 .92-.73 1.52-.74.6-1.75.6t-1.75-.6q-.73-.6-.73-1.52v-50.42h-5.34q-.92 0-1.52-.6t-.6-1.52.6-1.56q.6-.65 1.52-.65h7.91q.92 0 1.66.65.73.64.73 1.56v23.46h33.77v-21.34h-5.43q-.92 0-1.51-.6-.6-.6-.6-1.52t.6-1.56q.59-.65 1.51-.65h8.01q.92 0 1.65.65.74.64.74 1.56v48.03q0 1.38 2.12 1.38m49.69-17.48-13.43-27.6-13.34 27.6Zm-21.25-34.14h8.19q1.47 0 2.02 1.11l26.04 52.63q.18.37.18.83 0 1.56-1.47 2.11-.55.19-1.01.19-1.56 0-2.12-1.2l-8.55-17.3h-30.83l-8.55 17.3q-.83 1.84-3.13 1.01-1.47-.55-1.47-2.02 0-.37.18-.83l24.47-49.5h-3.95q-.92 0-1.52-.6t-.6-1.52.6-1.56q.6-.65 1.52-.65m50.41 9.39v45.36q0 .92-.74 1.52-.73.6-1.74.6-1.02 0-1.75-.6-.74-.6-.74-1.52v-50.42h-5.06q-1.01 0-1.75-.65-.73-.64-.73-1.56t.69-1.52 1.79-.6h7.18q1.47 0 2.3.92l36.07 46.38v-42.97h-5.43q-.92 0-1.52-.6t-.6-1.52.6-1.56q.6-.65 1.52-.65h15.82q.92 0 1.52.65.6.64.6 1.56t-.6 1.52-1.52.6h-5.43v50.14q0 2.4-2.39 2.4-1.29 0-2.21-1.29Zm-226.47 84.35h-14.08v47.3h14.08q10.67 0 16.69-6.21 6.03-6.22 6.03-17.3 0-11.09-6.16-17.44-6.17-6.35-16.56-6.35m-19.05 49.5v-49.5h-5.52q-.92 0-1.52-.6-.6-.59-.6-1.51t.6-1.57q.6-.64 1.52-.64h24.57q12.51 0 20.1 7.59t7.59 20.47-7.45 20.38q-7.46 7.5-20.24 7.5h-16.66q-2.39 0-2.39-2.12m106.28-2.2h3.41q.92 0 1.51.64.6.64.6 1.56t-.6 1.52q-.59.6-1.51.6h-3.41q-4.05 0-5.57-1.75-1.51-1.75-1.51-3.95v-20.25h-33.77v24.75q0 .92-.74 1.52-.73.6-1.75.6-1.01 0-1.74-.6-.74-.6-.74-1.52v-50.42h-5.34q-.92 0-1.52-.6-.59-.59-.59-1.51t.59-1.57q.6-.64 1.52-.64h7.92q.92 0 1.65.64.74.65.74 1.57v23.46h33.77v-21.35h-5.43q-.92 0-1.52-.6-.6-.59-.6-1.51t.6-1.57q.6-.64 1.52-.64h8q.92 0 1.66.64.73.65.73 1.57v48.03q0 1.38 2.12 1.38m19.27-2.95q-7.78-8.19-7.78-20.7t7.78-20.7q7.77-8.19 20.01-8.19t20.01 8.19q7.78 8.19 7.78 20.75t-7.78 20.7q-7.77 8.14-20.01 8.14t-20.01-8.19m3.54-38.32q-6.35 6.95-6.35 17.62t6.35 17.62 16.47 6.95 16.47-6.95 6.35-17.62-6.35-17.62-16.47-6.95-16.47 6.95m72.04 44.39v-50.42h-18.21v5.43q0 .92-.74 1.52t-1.75.6-1.75-.6q-.73-.6-.73-1.52v-7.54q0-.92.73-1.57.74-.64 1.66-.64h46.46q1.02 0 1.75.64.74.65.74 1.57v7.54q0 .92-.74 1.52-.73.6-1.75.6-1.01 0-1.74-.6-.74-.6-.74-1.52v-5.43h-18.22v50.42q0 .92-.73 1.52-.74.6-1.75.6t-1.75-.6-.74-1.52m62.2-50.41h-18.4v25.95h18.4q15.18 0 15.18-13.07 0-6.9-3.81-9.89-3.82-2.99-11.37-2.99m0 30.18h-18.4v20.24q0 .92-.74 1.52-.73.6-1.74.6-1.02 0-1.75-.6-.74-.6-.74-1.52v-50.42h-5.52q-.92 0-1.52-.6-.6-.59-.6-1.51t.6-1.57q.6-.64 1.52-.64h28.89q20.15 0 20.15 17.2 0 12.43-10.95 16.01l11.87 20.52q.19.37.19.83 0 1.29-1.06 1.84t-1.89.55-1.47-1.01l-12.61-21.62q-2.39.18-4.23.18m29.54-34.51h43.15q2.39 0 2.39 2.21v7.54q0 .92-.73 1.52-.74.6-1.75.6t-1.75-.6-.74-1.52v-5.43h-30.18v21.35h25.95v-3.4q0-.93.69-1.52.69-.6 1.7-.6 1.02 0 1.71.6.69.59.69 1.52v11.22q0 .92-.69 1.52t-1.71.6q-1.01 0-1.7-.6t-.69-1.52v-3.5h-25.95v21.63h32.67q1.1 0 1.79.59.69.6.69 1.52t-.73 1.57q-.74.64-1.75.64h-35.33q-2.3 0-2.3-2.02v-49.6h-5.43q-.92 0-1.52-.6-.6-.59-.6-1.51t.6-1.57q.6-.64 1.52-.64"/><path fill="none" stroke="#fff" stroke-width="1.22" d="M782.736 594.678a127.174 127.174 0 1 0 0 254.348 127.174 127.174 0 1 0 0-254.348Z"/><rect width="139.309" height="344.65" x="493.654" y="296.498" fill="none" rx="0" ry="0" transform="translate(171.76 182.78)scale(1.06)"/><path fill="#fff" d="M742.036 700.392q-2.9 0-5.32-2.42t-2.42-5.32q0-3.87 3.55-6.45 2.58-2.26 5.81-2.26 7.41 0 7.41 6.45 0 10-9.03 10m-21.61 80.64q-18.71-.32-16.77-25.81.32-10.96 11.93-28.06 1.94-3.55 8.39-3.55 4.84 0 4.84 2.91l-.32 1.61-8.07 13.87q-4.84 9.03-5.16 13.87-.32 1.61-.48 3.39-.16 1.77-.16 3.38 0 13.23 9.35 13.23 12.9 0 32.26-20.32 1.93-2.26 3.22-2.26.97.32.97 1.61 0 .97-.97 2.58-22.58 24.19-39.03 23.55"/><path fill="#fff" d="M758.816 781.352q-7.42 0-7.42-9.68 0-7.74 5.8-16.77 6.45-10.32 17.42-19.35 13.87-11.94 22.9-10.97 8.71-23.55 18.71-43.22 14.2-27.74 25.81-35.16 5.48-3.55 11.29-3.55 9.35 0 9.35 9.68 0 17.09-20.64 41.93-7.1 9.03-15.97 17.74t-19.19 17.74q-3.87 10-5.97 18.07-2.1 8.06-2.42 14.51 1.29 12.9 11.94 12.9 12.58 0 31.29-19.67 1.61-1.94 2.58-1.94.96 0 .96 1.29t-.96 2.9q-21.62 23.23-37.74 23.23-7.75 0-12.58-6.77-5.17-7.1-5.49-17.1-8.06 10.64-16.13 17.74-8.38 6.45-13.54 6.45m50.64-58.06q16.45-15.81 29.03-34.19 16.13-23.23 18.06-36.45v-1.61q0-3.87-2.58-3.87-6.45 0-13.22 11.93-8.71 15.16-16.45 31.29t-14.84 32.9m-43.87 48.38q3.55 0 9.35-4.83 10.65-9.04 13.87-17.74 5.17-15.81 6.78-17.75-8.71-.64-17.42 6.78-8.06 6.13-12.9 16.45-3.55 6.45-3.55 11.61 0 5.48 3.87 5.48"/></g><path fill="transparent" stroke="transparent" stroke-width="1.786" d="M419.643 250h660.714v1000H419.643z"/></g></svg>