<?xml version="1.0" encoding="UTF-8"?>
<svg xmlns="http://www.w3.org/2000/svg" xmlns:xlink="http://www.w3.org/1999/xlink" width="1500px" height="1500px" viewBox="0 0 750 750" version="1.1">
<g id="surface1">
<rect x="0" y="0" width="750" height="750" style="fill:rgb(0%,0%,0%);fill-opacity:1;stroke:none;"/>
<path style=" stroke:none;fill-rule:nonzero;fill:rgb(100%,100%,100%);fill-opacity:1;" d="M 265.710938 512.429688 L 270.296875 512.429688 L 270.296875 472.488281 L 265.710938 472.488281 C 265.191406 472.488281 264.765625 472.320312 264.425781 471.980469 C 264.089844 471.644531 263.917969 471.214844 263.917969 470.695312 C 263.917969 470.179688 264.089844 469.738281 264.425781 469.378906 C 264.765625 469.011719 265.191406 468.832031 265.710938 468.832031 L 279.070312 468.832031 C 279.589844 468.832031 280.015625 469.011719 280.355469 469.378906 C 280.691406 469.738281 280.863281 470.179688 280.863281 470.695312 C 280.863281 471.214844 280.691406 471.644531 280.355469 471.980469 C 280.015625 472.320312 279.589844 472.488281 279.070312 472.488281 L 274.484375 472.488281 L 274.484375 512.429688 L 279.070312 512.429688 C 279.589844 512.429688 280.015625 512.597656 280.355469 512.933594 C 280.691406 513.273438 280.863281 513.699219 280.863281 514.21875 C 280.863281 514.738281 280.691406 515.175781 280.355469 515.535156 C 280.015625 515.902344 279.589844 516.085938 279.070312 516.085938 L 265.710938 516.085938 C 265.191406 516.085938 264.765625 515.902344 264.425781 515.535156 C 264.089844 515.175781 263.917969 514.738281 263.917969 514.21875 C 263.917969 513.699219 264.089844 513.273438 264.425781 512.933594 C 264.765625 512.597656 265.191406 512.429688 265.710938 512.429688 M 291.113281 505.359375 L 291.113281 510.722656 C 294.589844 512.378906 298.996094 513.207031 304.332031 513.207031 C 309.664062 513.207031 313.679688 512.363281 316.378906 510.679688 C 319.070312 508.996094 320.414062 506.613281 320.414062 503.535156 C 320.414062 500.449219 319.144531 498.15625 316.605469 496.652344 C 314.066406 495.148438 310.027344 493.867188 304.484375 492.808594 C 298.9375 491.746094 294.78125 490.332031 292.011719 488.570312 C 289.238281 486.8125 287.855469 484.042969 287.855469 480.257812 C 287.855469 472.121094 293.890625 468.054688 305.964844 468.054688 C 312.386719 468.054688 317.699219 469.21875 321.890625 471.550781 C 322.667969 472.015625 323.058594 472.5625 323.058594 473.1875 L 323.058594 479.558594 C 323.058594 480.074219 322.847656 480.503906 322.433594 480.839844 C 322.023438 481.179688 321.53125 481.347656 320.964844 481.347656 C 320.390625 481.347656 319.894531 481.179688 319.484375 480.839844 C 319.070312 480.503906 318.859375 480.074219 318.859375 479.558594 L 318.859375 474.195312 C 315.285156 472.539062 311.050781 471.710938 306.15625 471.710938 C 301.257812 471.710938 297.683594 472.410156 295.429688 473.804688 C 293.179688 475.207031 292.050781 477.359375 292.050781 480.257812 C 292.050781 483.003906 293.503906 485.050781 296.402344 486.398438 C 298.375 487.382812 301.027344 488.226562 304.367188 488.921875 C 307.710938 489.621094 310.082031 490.152344 311.476562 490.511719 C 312.878906 490.878906 314.511719 491.433594 316.378906 492.183594 C 318.242188 492.9375 319.691406 493.78125 320.726562 494.707031 C 321.761719 495.644531 322.667969 496.875 323.445312 498.398438 C 324.222656 499.929688 324.613281 501.679688 324.613281 503.644531 C 324.613281 507.6875 322.914062 510.898438 319.519531 513.28125 C 316.128906 515.667969 311.273438 516.863281 304.949219 516.863281 C 302.050781 516.863281 298.917969 516.539062 295.550781 515.890625 C 292.183594 515.242188 289.644531 514.375 287.929688 513.28125 C 287.261719 512.871094 286.925781 512.351562 286.925781 511.726562 L 286.925781 505.359375 C 286.925781 504.839844 287.132812 504.414062 287.542969 504.074219 C 287.960938 503.738281 288.453125 503.570312 289.019531 503.570312 C 289.589844 503.570312 290.082031 503.738281 290.5 504.074219 C 290.910156 504.414062 291.113281 504.839844 291.113281 505.359375 M 374.738281 512.429688 L 377.609375 512.429688 C 378.128906 512.429688 378.554688 512.609375 378.894531 512.96875 C 379.230469 513.335938 379.402344 513.777344 379.402344 514.292969 C 379.402344 514.8125 379.230469 515.242188 378.894531 515.578125 C 378.554688 515.917969 378.128906 516.085938 377.609375 516.085938 L 374.738281 516.085938 C 372.457031 516.085938 370.890625 515.59375 370.035156 514.605469 C 369.179688 513.621094 368.75 512.507812 368.75 511.261719 L 368.75 494.167969 L 340.226562 494.167969 L 340.226562 515.070312 C 340.226562 515.589844 340.023438 516.019531 339.613281 516.355469 C 339.195312 516.695312 338.703125 516.863281 338.132812 516.863281 C 337.566406 516.863281 337.074219 516.695312 336.65625 516.355469 C 336.246094 516.019531 336.039062 515.589844 336.039062 515.070312 L 336.039062 472.488281 L 331.527344 472.488281 C 331.011719 472.488281 330.582031 472.320312 330.246094 471.980469 C 329.90625 471.644531 329.738281 471.214844 329.738281 470.695312 C 329.738281 470.179688 329.90625 469.738281 330.246094 469.378906 C 330.582031 469.011719 331.011719 468.832031 331.527344 468.832031 L 338.210938 468.832031 C 338.726562 468.832031 339.195312 469.011719 339.613281 469.378906 C 340.023438 469.738281 340.226562 470.179688 340.226562 470.695312 L 340.226562 490.511719 L 368.75 490.511719 L 368.75 472.488281 L 364.164062 472.488281 C 363.644531 472.488281 363.222656 472.320312 362.890625 471.980469 C 362.550781 471.644531 362.382812 471.214844 362.382812 470.695312 C 362.382812 470.179688 362.550781 469.738281 362.890625 469.378906 C 363.222656 469.011719 363.644531 468.832031 364.164062 468.832031 L 370.929688 468.832031 C 371.449219 468.832031 371.910156 469.011719 372.324219 469.378906 C 372.738281 469.738281 372.949219 470.179688 372.949219 470.695312 L 372.949219 511.261719 C 372.949219 512.039062 373.542969 512.429688 374.738281 512.429688 M 416.707031 497.664062 L 405.363281 474.355469 L 394.097656 497.664062 Z M 398.757812 468.832031 L 405.675781 468.832031 C 406.503906 468.832031 407.074219 469.144531 407.382812 469.769531 L 429.375 514.21875 C 429.476562 514.425781 429.527344 514.660156 429.527344 514.917969 C 429.527344 515.796875 429.113281 516.390625 428.285156 516.703125 C 427.976562 516.808594 427.691406 516.863281 427.433594 516.863281 C 426.554688 516.863281 425.957031 516.523438 425.640625 515.847656 L 418.421875 501.238281 L 392.382812 501.238281 L 385.160156 515.847656 C 384.695312 516.886719 383.8125 517.167969 382.515625 516.703125 C 381.691406 516.390625 381.277344 515.824219 381.277344 514.996094 C 381.277344 514.789062 381.328125 514.554688 381.425781 514.292969 L 402.09375 472.488281 L 398.757812 472.488281 C 398.242188 472.488281 397.8125 472.320312 397.476562 471.980469 C 397.136719 471.644531 396.96875 471.214844 396.96875 470.695312 C 396.96875 470.179688 397.136719 469.738281 397.476562 469.378906 C 397.8125 469.011719 398.242188 468.832031 398.757812 468.832031 M 441.335938 476.761719 L 441.335938 515.070312 C 441.335938 515.589844 441.125 516.019531 440.710938 516.355469 C 440.296875 516.695312 439.808594 516.863281 439.242188 516.863281 C 438.664062 516.863281 438.171875 516.695312 437.761719 516.355469 C 437.34375 516.019531 437.136719 515.589844 437.136719 515.070312 L 437.136719 472.488281 L 432.863281 472.488281 C 432.292969 472.488281 431.800781 472.304688 431.386719 471.9375 C 430.972656 471.578125 430.769531 471.140625 430.769531 470.621094 C 430.769531 470.101562 430.964844 469.675781 431.351562 469.335938 C 431.742188 469 432.246094 468.832031 432.863281 468.832031 L 438.929688 468.832031 C 439.753906 468.832031 440.402344 469.089844 440.871094 469.605469 L 471.335938 508.78125 L 471.335938 472.488281 L 466.75 472.488281 C 466.230469 472.488281 465.804688 472.320312 465.464844 471.980469 C 465.128906 471.644531 464.957031 471.214844 464.957031 470.695312 C 464.957031 470.179688 465.128906 469.738281 465.464844 469.378906 C 465.804688 469.011719 466.230469 468.832031 466.75 468.832031 L 480.109375 468.832031 C 480.628906 468.832031 481.054688 469.011719 481.394531 469.378906 C 481.730469 469.738281 481.902344 470.179688 481.902344 470.695312 C 481.902344 471.214844 481.730469 471.644531 481.394531 471.980469 C 481.054688 472.320312 480.628906 472.488281 480.109375 472.488281 L 475.523438 472.488281 L 475.523438 514.835938 C 475.523438 516.1875 474.851562 516.863281 473.503906 516.863281 C 472.777344 516.863281 472.15625 516.5 471.640625 515.773438 Z M 250.058594 548.003906 L 238.167969 548.003906 L 238.167969 587.953125 L 250.058594 587.953125 C 256.066406 587.953125 260.765625 586.203125 264.15625 582.707031 C 267.550781 579.203125 269.25 574.335938 269.25 568.09375 C 269.25 561.851562 267.515625 556.941406 264.046875 553.367188 C 260.570312 549.789062 255.910156 548.003906 250.058594 548.003906 M 233.96875 589.808594 L 233.96875 548.003906 L 229.308594 548.003906 C 228.789062 548.003906 228.363281 547.832031 228.023438 547.496094 C 227.6875 547.164062 227.515625 546.738281 227.515625 546.21875 C 227.515625 545.703125 227.6875 545.261719 228.023438 544.894531 C 228.363281 544.535156 228.789062 544.355469 229.308594 544.355469 L 250.058594 544.355469 C 257.101562 544.355469 262.761719 546.492188 267.035156 550.765625 C 271.308594 555.039062 273.445312 560.800781 273.445312 568.054688 C 273.445312 575.304688 271.347656 581.042969 267.152344 585.265625 C 262.953125 589.488281 257.253906 591.601562 250.058594 591.601562 L 235.988281 591.601562 C 234.644531 591.601562 233.96875 591.003906 233.96875 589.808594 M 323.734375 587.953125 L 326.613281 587.953125 C 327.132812 587.953125 327.554688 588.132812 327.890625 588.492188 C 328.226562 588.851562 328.394531 589.292969 328.394531 589.808594 C 328.394531 590.328125 328.226562 590.757812 327.890625 591.09375 C 327.554688 591.433594 327.132812 591.601562 326.613281 591.601562 L 323.734375 591.601562 C 321.453125 591.601562 319.886719 591.109375 319.027344 590.121094 C 318.179688 589.136719 317.753906 588.023438 317.753906 586.785156 L 317.753906 569.683594 L 289.230469 569.683594 L 289.230469 590.585938 C 289.230469 591.105469 289.023438 591.53125 288.605469 591.871094 C 288.195312 592.207031 287.703125 592.378906 287.128906 592.378906 C 286.558594 592.378906 286.070312 592.207031 285.660156 591.871094 C 285.242188 591.53125 285.035156 591.105469 285.035156 590.585938 L 285.035156 548.003906 L 280.523438 548.003906 C 280.007812 548.003906 279.578125 547.832031 279.238281 547.496094 C 278.90625 547.164062 278.742188 546.738281 278.742188 546.21875 C 278.742188 545.703125 278.90625 545.261719 279.238281 544.894531 C 279.578125 544.535156 280.007812 544.355469 280.523438 544.355469 L 287.214844 544.355469 C 287.730469 544.355469 288.195312 544.535156 288.605469 544.894531 C 289.023438 545.261719 289.230469 545.703125 289.230469 546.21875 L 289.230469 566.035156 L 317.753906 566.035156 L 317.753906 548.003906 L 313.167969 548.003906 C 312.648438 548.003906 312.222656 547.832031 311.882812 547.496094 C 311.546875 547.164062 311.378906 546.738281 311.378906 546.21875 C 311.378906 545.703125 311.546875 545.261719 311.882812 544.894531 C 312.222656 544.535156 312.648438 544.355469 313.167969 544.355469 L 319.925781 544.355469 C 320.441406 544.355469 320.910156 544.535156 321.328125 544.894531 C 321.738281 545.261719 321.941406 545.703125 321.941406 546.21875 L 321.941406 586.785156 C 321.941406 587.5625 322.539062 587.953125 323.734375 587.953125 M 340.007812 585.460938 C 335.628906 580.847656 333.4375 575.019531 333.4375 567.976562 C 333.4375 560.933594 335.628906 555.105469 340.007812 550.496094 C 344.382812 545.882812 350.015625 543.578125 356.910156 543.578125 C 363.800781 543.578125 369.433594 545.882812 373.808594 550.496094 C 378.191406 555.105469 380.378906 560.949219 380.378906 568.019531 C 380.378906 575.089844 378.191406 580.917969 373.808594 585.503906 C 369.433594 590.085938 363.800781 592.378906 356.910156 592.378906 C 350.015625 592.378906 344.382812 590.070312 340.007812 585.460938 M 343 553.09375 C 339.421875 557.007812 337.636719 561.96875 337.636719 567.976562 C 337.636719 573.984375 339.421875 578.945312 343 582.859375 C 346.574219 586.773438 351.210938 588.730469 356.910156 588.730469 C 362.605469 588.730469 367.246094 586.773438 370.820312 582.859375 C 374.394531 578.945312 376.183594 573.984375 376.183594 567.976562 C 376.183594 561.96875 374.394531 557.007812 370.820312 553.09375 C 367.246094 549.183594 362.605469 547.226562 356.910156 547.226562 C 351.210938 547.226562 346.574219 549.183594 343 553.09375 M 403.84375 590.585938 L 403.84375 548.003906 L 388.464844 548.003906 L 388.464844 552.589844 C 388.464844 553.105469 388.253906 553.535156 387.839844 553.871094 C 387.421875 554.210938 386.929688 554.378906 386.359375 554.378906 C 385.792969 554.378906 385.296875 554.210938 384.882812 553.871094 C 384.472656 553.535156 384.265625 553.105469 384.265625 552.589844 L 384.265625 546.21875 C 384.265625 545.703125 384.472656 545.261719 384.882812 544.894531 C 385.296875 544.535156 385.765625 544.355469 386.285156 544.355469 L 425.523438 544.355469 C 426.097656 544.355469 426.589844 544.535156 427.003906 544.894531 C 427.417969 545.261719 427.628906 545.703125 427.628906 546.21875 L 427.628906 552.589844 C 427.628906 553.105469 427.417969 553.535156 427.003906 553.871094 C 426.589844 554.210938 426.097656 554.378906 425.523438 554.378906 C 424.957031 554.378906 424.464844 554.210938 424.054688 553.871094 C 423.636719 553.535156 423.429688 553.105469 423.429688 552.589844 L 423.429688 548.003906 L 408.039062 548.003906 L 408.039062 590.585938 C 408.039062 591.105469 407.835938 591.53125 407.425781 591.871094 C 407.007812 592.207031 406.515625 592.378906 405.945312 592.378906 C 405.378906 592.378906 404.886719 592.207031 404.46875 591.871094 C 404.050781 591.53125 403.84375 591.105469 403.84375 590.585938 M 456.378906 548.011719 L 440.835938 548.011719 L 440.835938 569.929688 L 456.378906 569.929688 C 464.925781 569.929688 469.199219 566.25 469.199219 558.890625 C 469.199219 555.003906 468.125 552.21875 465.980469 550.535156 C 463.828125 548.851562 460.628906 548.011719 456.378906 548.011719 M 456.378906 573.5 L 440.835938 573.5 L 440.835938 590.59375 C 440.835938 591.113281 440.628906 591.542969 440.210938 591.878906 C 439.800781 592.21875 439.3125 592.386719 438.742188 592.386719 C 438.167969 592.386719 437.675781 592.21875 437.265625 591.878906 C 436.847656 591.542969 436.640625 591.113281 436.640625 590.59375 L 436.640625 548.011719 L 431.976562 548.011719 C 431.457031 548.011719 431.03125 547.84375 430.691406 547.503906 C 430.355469 547.171875 430.1875 546.746094 430.1875 546.230469 C 430.1875 545.710938 430.355469 545.269531 430.691406 544.902344 C 431.03125 544.542969 431.457031 544.363281 431.976562 544.363281 L 456.378906 544.363281 C 467.722656 544.363281 473.394531 549.203125 473.394531 558.890625 C 473.394531 565.886719 470.3125 570.394531 464.148438 572.410156 L 474.171875 589.742188 C 474.28125 589.949219 474.332031 590.183594 474.332031 590.445312 C 474.332031 591.171875 474.035156 591.6875 473.4375 591.996094 C 472.839844 592.308594 472.308594 592.460938 471.839844 592.460938 C 471.375 592.460938 470.960938 592.179688 470.601562 591.609375 L 459.949219 573.347656 C 458.605469 573.449219 457.414062 573.5 456.378906 573.5 M 481.328125 544.355469 L 517.769531 544.355469 C 519.117188 544.355469 519.789062 544.976562 519.789062 546.21875 L 519.789062 552.589844 C 519.789062 553.105469 519.582031 553.535156 519.171875 553.871094 C 518.757812 554.210938 518.261719 554.378906 517.695312 554.378906 C 517.125 554.378906 516.632812 554.210938 516.214844 553.871094 C 515.800781 553.535156 515.589844 553.105469 515.589844 552.589844 L 515.589844 548.003906 L 490.101562 548.003906 L 490.101562 566.035156 L 512.019531 566.035156 L 512.019531 563.164062 C 512.019531 562.640625 512.214844 562.210938 512.601562 561.878906 C 512.992188 561.542969 513.46875 561.371094 514.039062 561.371094 C 514.613281 561.371094 515.09375 561.542969 515.480469 561.878906 C 515.871094 562.210938 516.066406 562.640625 516.066406 563.164062 L 516.066406 572.640625 C 516.066406 573.15625 515.871094 573.585938 515.480469 573.921875 C 515.09375 574.261719 514.613281 574.429688 514.039062 574.429688 C 513.46875 574.429688 512.992188 574.261719 512.601562 573.921875 C 512.214844 573.585938 512.019531 573.15625 512.019531 572.640625 L 512.019531 569.683594 L 490.101562 569.683594 L 490.101562 587.953125 L 517.695312 587.953125 C 518.3125 587.953125 518.816406 588.117188 519.207031 588.449219 C 519.59375 588.789062 519.789062 589.214844 519.789062 589.734375 C 519.789062 590.253906 519.582031 590.695312 519.171875 591.058594 C 518.757812 591.421875 518.261719 591.601562 517.695312 591.601562 L 487.855469 591.601562 C 486.558594 591.601562 485.914062 591.03125 485.914062 589.894531 L 485.914062 548.003906 L 481.328125 548.003906 C 480.808594 548.003906 480.378906 547.832031 480.042969 547.496094 C 479.703125 547.164062 479.535156 546.738281 479.535156 546.21875 C 479.535156 545.703125 479.703125 545.261719 480.042969 544.894531 C 480.378906 544.535156 480.808594 544.355469 481.328125 544.355469 "/>
<path style="fill:none;stroke-width:1.22;stroke-linecap:butt;stroke-linejoin:miter;stroke:rgb(100%,100%,100%);stroke-opacity:1;stroke-miterlimit:4;" d="M 782.734213 594.678265 C 712.498998 594.678265 655.560651 651.616612 655.560651 721.851827 C 655.560651 792.087042 712.498998 849.025389 782.734213 849.025389 C 852.974053 849.025389 909.907775 792.087042 909.907775 721.851827 C 909.907775 651.616612 852.974053 594.678265 782.734213 594.678265 Z M 782.734213 594.678265 " transform="matrix(0.844595,0,0,0.844595,-285.714508,-281.129486)"/>
<path style=" stroke:none;fill-rule:nonzero;fill:rgb(100%,100%,100%);fill-opacity:1;" d="M 341.003906 310.417969 C 339.371094 310.417969 337.875 309.738281 336.511719 308.375 C 335.148438 307.011719 334.46875 305.515625 334.46875 303.882812 C 334.46875 301.703125 335.46875 299.886719 337.464844 298.433594 C 338.917969 297.160156 340.554688 296.523438 342.375 296.523438 C 346.546875 296.523438 348.632812 298.339844 348.632812 301.972656 C 348.632812 307.601562 346.089844 310.417969 341.003906 310.417969 M 322.753906 378.527344 C 312.21875 378.347656 307.496094 371.078125 308.589844 356.726562 C 308.769531 350.554688 312.128906 342.65625 318.664062 333.027344 C 319.757812 331.027344 322.121094 330.03125 325.753906 330.03125 C 328.476562 330.03125 329.839844 330.847656 329.839844 332.488281 L 329.570312 333.847656 L 322.753906 345.5625 C 320.027344 350.644531 318.574219 354.550781 318.394531 357.277344 C 318.214844 358.183594 318.082031 359.136719 317.988281 360.140625 C 317.898438 361.136719 317.855469 362.085938 317.855469 362.996094 C 317.855469 370.445312 320.488281 374.167969 325.753906 374.167969 C 333.015625 374.167969 342.097656 368.449219 353 357.007812 C 354.085938 355.734375 354.992188 355.097656 355.71875 355.097656 C 356.265625 355.277344 356.539062 355.730469 356.539062 356.457031 C 356.539062 357.003906 356.265625 357.730469 355.71875 358.636719 C 343.003906 372.257812 332.015625 378.886719 322.753906 378.527344 "/>
<path style=" stroke:none;fill-rule:nonzero;fill:rgb(100%,100%,100%);fill-opacity:1;" d="M 355.175781 378.796875 C 351 378.796875 348.910156 376.070312 348.910156 370.621094 C 348.910156 366.261719 350.542969 361.542969 353.808594 356.457031 C 357.441406 350.644531 362.34375 345.199219 368.523438 340.113281 C 376.332031 333.390625 382.777344 330.300781 387.863281 330.847656 C 392.769531 317.589844 398.035156 305.421875 403.664062 294.34375 C 411.660156 278.726562 418.929688 268.828125 425.464844 264.648438 C 428.550781 262.652344 431.730469 261.652344 435 261.652344 C 440.265625 261.652344 442.898438 264.375 442.898438 269.828125 C 442.898438 279.449219 437.085938 291.253906 425.464844 305.242188 C 421.46875 310.324219 416.972656 315.320312 411.976562 320.222656 C 406.980469 325.128906 401.578125 330.121094 395.769531 335.207031 C 393.589844 340.835938 391.910156 345.925781 390.726562 350.46875 C 389.542969 355.007812 388.863281 359.09375 388.683594 362.722656 C 389.410156 369.988281 392.769531 373.621094 398.765625 373.621094 C 405.851562 373.621094 414.660156 368.082031 425.195312 357.007812 C 426.101562 355.914062 426.828125 355.367188 427.375 355.367188 C 427.914062 355.367188 428.183594 355.730469 428.183594 356.457031 C 428.183594 357.183594 427.914062 358 427.375 358.90625 C 415.199219 371.984375 404.574219 378.527344 395.5 378.527344 C 391.136719 378.527344 387.59375 376.621094 384.875 372.808594 C 381.960938 368.8125 380.417969 363.996094 380.238281 358.367188 C 375.699219 364.355469 371.15625 369.351562 366.613281 373.347656 C 361.894531 376.980469 358.082031 378.796875 355.175781 378.796875 M 397.949219 329.757812 C 407.210938 320.855469 415.382812 311.230469 422.464844 300.882812 C 431.546875 287.800781 436.632812 277.539062 437.71875 270.097656 L 437.71875 268.738281 C 437.71875 266.558594 436.992188 265.46875 435.539062 265.46875 C 431.910156 265.46875 428.1875 268.828125 424.375 275.542969 C 419.472656 284.082031 414.839844 292.890625 410.480469 301.972656 C 406.125 311.054688 401.945312 320.316406 397.949219 329.757812 M 360.894531 370.621094 C 362.894531 370.621094 365.527344 369.261719 368.792969 366.542969 C 374.789062 361.453125 378.695312 356.457031 380.507812 351.558594 C 383.417969 342.65625 385.328125 337.660156 386.234375 336.566406 C 381.328125 336.207031 376.425781 338.113281 371.519531 342.292969 C 366.980469 345.746094 363.351562 350.375 360.625 356.1875 C 358.625 359.820312 357.628906 363.085938 357.628906 365.992188 C 357.628906 369.078125 358.714844 370.621094 360.894531 370.621094 "/>
</g>
</svg>
